<svg xmlns="http://www.w3.org/2000/svg" viewBox="0 0 512 512" role="img" aria-labelledby="title">
  <title id="title">WheelMates Wiki</title>
  <rect width="512" height="512" rx="96" fill="#102b46"/>
  <path d="M72 302c0-83 67-150 150-150h68c83 0 150 67 150 150v36H72z" fill="#f4ead6"/>
  <path d="M92 287c7-61 59-108 122-108h34v159H92z" fill="#23a5db"/>
  <path d="M264 179h34c63 0 115 47 122 108v51H264z" fill="#ee7b2d"/>
  <path d="M232 179h48v159h-48z" fill="#102b46"/>
  <circle cx="158" cy="338" r="70" fill="#081721" stroke="#fff" stroke-width="14"/>
  <circle cx="354" cy="338" r="70" fill="#081721" stroke="#fff" stroke-width="14"/>
  <circle cx="158" cy="338" r="25" fill="#23a5db"/>
  <circle cx="354" cy="338" r="25" fill="#ee7b2d"/>
  <path d="M120 116h272" stroke="#fff" stroke-width="22" stroke-linecap="round"/>
</svg>
